Coordinates
version=1
nRows=23
nColumns=23
inDegrees=yes

Units are S.I. units (second, meters, Newtons, ...)
If the header above contains a line with 'inDegrees', this indicates whether rotational values are in degrees (yes) or radians (no).

endheader
time	pelvis_tilt	pelvis_list	pelvis_rotation	pelvis_tx	pelvis_ty	pelvis_tz	hip_flexion_r	hip_adduction_r	hip_rotation_r	knee_angle_r	knee_angle_r_beta	ankle_angle_r	subtalar_angle_r	mtp_angle_r	hip_flexion_l	hip_adduction_l	hip_rotation_l	knee_angle_l	knee_angle_l_beta	ankle_angle_l	subtalar_angle_l	mtp_angle_l
     22.50000000	     -1.34359508	      8.31190648	      5.31106782	      2.53606225	      0.93029564	      0.99824856	    -14.94834289	    -12.33441349	    -18.50045413	     68.81149738	      1.20098719	    -15.68078630	    -24.40148427	      0.00000000	     24.91031572	     10.62026088	    -11.81572298	     19.76360135	      0.34493992	      9.93297042	      3.14912616	      0.00000000
     22.50666667	     -0.17078561	      8.92117135	      5.53316290	      2.53404155	      0.92623520	      0.99828084	    -14.79366202	    -13.12531541	    -18.22791716	     72.31584470	      1.26214959	    -15.76492880	    -25.21994052	      0.00000000	     24.20725130	     10.93200824	    -12.04055836	     23.12328711	      0.40357749	      9.35107514	      2.31428185	      0.00000000
     22.51333333	      0.59558257	      9.19748194	      5.77184700	      2.53170809	      0.92147041	      0.99841328	    -13.96582325	    -13.54455245	    -17.71238420	     75.83223707	      1.32352222	    -15.77728859	    -26.08944588	      0.00000000	     24.10834420	     10.77930655	    -12.55224752	     26.99761353	      0.47119725	      9.57660835	      2.40353773	      0.00000000
     22.52000000	      1.50881004	      9.74130341	      6.01814207	      2.52928608	      0.91701643	      0.99848202	    -13.29835010	    -14.28621121	    -17.33010711	     79.23720883	      1.38295018	    -15.60181362	    -26.62307355	      0.00000000	     23.54378307	     11.18529599	    -12.13666113	     30.28987001	      0.52865796	      9.76547552	      1.14260248	      0.00000000
     22.52666667	      2.19883626	     10.23630605	      6.26573424	      2.52659628	      0.91245359	      0.99850996	    -12.23513055	    -14.98246477	    -16.79726201	     82.58640606	      1.44140470	    -15.34580994	    -27.05995598	      0.00000000	     23.13840466	     11.66885062	    -11.43603714	     33.47425787	      0.58423601	     10.39131227	     -0.30442706	      0.00000000
     22.53333333	      2.68768421	     10.66617580	      6.49323209	      2.52369357	      0.90791257	      0.99848411	    -10.78791827	    -15.62445671	    -16.09180182	     85.84661101	      1.49830601	    -15.00002357	    -27.37053889	      0.00000000	     22.83382832	     12.21817424	    -10.50801428	     36.46101153	      0.63636470	     11.39426099	     -1.90746983	      0.00000000
     22.54000000	      2.98094349	     11.00581538	      6.67619686	      2.52070640	      0.90350051	      0.99841042	     -8.96437020	    -16.16309067	    -15.17319077	     88.96367343	      1.55270902	    -14.58905712	    -27.55879738	      0.00000000	     22.59530984	     12.76641198	     -9.48394170	     39.21739208	      0.68447262	     12.73990635	     -3.45717725	      0.00000000
     22.54666667	      3.07789594	     11.20706761	      6.79582592	      2.51758788	      0.89933956	      0.99831906	     -6.73389775	    -16.53501175	    -14.01431463	     91.91282923	      1.60418149	    -14.10275712	    -27.62253836	      0.00000000	     22.40440814	     13.22096170	     -8.47115400	     41.69678277	      0.72774615	     14.35514403	     -4.78140167	      0.00000000
     22.55333333	      2.98195605	     11.25352891	      6.84266761	      2.51442018	      0.89547348	      0.99821946	     -4.10716466	    -16.70611146	    -12.63229057	     94.65435189	      1.65203009	    -13.55295615	    -27.55904041	      0.00000000	     22.24048467	     13.52041109	     -7.54953034	     43.87573371	      0.76577601	     16.13139895	     -5.82424694	      0.00000000
     22.56000000	      2.74541650	     11.13484800	      6.76985181	      2.51126608	      0.89204461	      0.99820092	     -1.15089628	    -16.63458667	    -11.03034680	     97.13821655	      1.69538171	    -12.97921376	    -27.41039588	      0.00000000	     22.02801019	     13.62434488	     -6.73680154	     45.70697554	      0.79773721	     17.95367993	     -6.66847077	      0.00000000
     22.56666667	      2.44095554	     10.88860130	      6.58782665	      2.50819861	      0.88913210	      0.99824248	      1.99228650	    -16.36510192	     -9.31668789	     99.32067396	      1.73347278	    -12.34346334	    -27.11326219	      0.00000000	     21.67812172	     13.53119513	     -6.09230047	     47.18467283	      0.82352790	     19.76508121	     -7.25328385	      0.00000000
     22.57333333	      2.04038140	     10.47548869	      6.31434599	      2.50527933	      0.88678188	      0.99838097	      5.31730814	    -15.81917410	     -7.54992193	    101.15240576	      1.76544253	    -11.67566893	    -26.74094446	      0.00000000	     21.21386629	     13.20393964	     -5.57427053	     48.29065685	      0.84283096	     21.52175592	     -7.53444219	      0.00000000
     22.58000000	      1.67605904	      9.96961372	      5.95397722	      2.50260495	      0.88510441	      0.99859113	      8.59121246	    -15.11721830	     -5.85903792	    102.59604500	      1.79063878	    -10.95076188	    -26.23609395	      0.00000000	     20.48649353	     12.68353852	     -5.23634639	     49.03238264	      0.85577652	     23.16797766	     -7.54590100	      0.00000000
     22.58666667	      1.34564368	      9.38761152	      5.52623545	      2.50022001	      0.88414245	      0.99890358	     11.76761647	    -14.27770423	     -4.30249413	    103.61825321	      1.80847968	    -10.17416183	    -25.66660700	      0.00000000	     19.49837700	     11.99531497	     -5.06214115	     49.39990996	      0.86219108	     24.71102858	     -7.26703365	      0.00000000
     22.59333333	      1.09167848	      8.76076459	      5.07319086	      2.49830248	      0.88394368	      0.99925767	     14.71602573	    -13.38086288	     -2.98358012	    104.19358862	      1.81852118	     -9.32979321	    -25.06107869	      0.00000000	     18.17888089	     11.17280020	     -5.05142207	     49.37466122	      0.86175041	     26.08447291	     -6.70140544	      0.00000000
     22.60000000	      1.07128685	      8.14998716	      4.57005697	      2.49682696	      0.88478742	      0.99964729	     17.22845479	    -12.49950389	     -1.89842409	    104.28878892	      1.82018274	     -8.46394818	    -24.56982070	      0.00000000	     16.33346913	     10.37649276	     -5.00687540	     48.84170531	      0.85244857	     27.06445109	     -6.51600801	      0.00000000
     22.60666667	      0.93941589	      7.43891182	      4.10623557	      2.49586621	      0.88608734	      1.00007856	     19.67881034	    -11.53347153	     -1.10372451	    103.96788958	      1.81458199	     -7.39423916	    -23.89171628	      0.00000000	     14.42731150	      9.29019259	     -5.40852700	     48.05365640	      0.83869452	     27.91990071	     -5.11697210	      0.00000000
     22.61333333	      1.05053361	      6.73015250	      3.63982977	      2.49543403	      0.88837723	      1.00047744	     21.61944583	    -10.61441844	     -0.59730312	    103.16309853	      1.80053574	     -6.36350573	    -23.51504438	      0.00000000	     12.01341792	      8.25526511	     -5.74345549	     46.79383297	      0.81670645	     28.39369461	     -4.09073323	      0.00000000
     22.62000000	      1.08452756	      6.03242338	      3.20516575	      2.49545588	      0.89114031	      1.00078856	     23.43599061	     -9.77962760	     -0.32668207	    101.97048320	      1.77972067	     -5.19558662	    -23.21509183	      0.00000000	      9.50779070	      7.31172493	     -6.02202068	     45.17549772	      0.78846118	     28.57109218	     -3.41270299	      0.00000000
     22.62666667	      1.31755098	      5.27465240	      2.83798392	      2.49613232	      0.89463709	      1.00108202	     24.75210502	     -8.96436687	     -0.42126651	    100.36100227	      1.75162993	     -3.94410460	    -23.00949637	      0.00000000	      6.59410962	      6.24239032	     -6.49259251	     43.22036068	      0.75433760	     28.62362333	     -2.11999136	      0.00000000
     22.63333333	      1.56141635	      4.42030919	      2.56165676	      2.49721453	      0.89849076	      1.00118469	     25.81706279	     -8.15474079	     -0.83750701	     98.38108630	      1.71707388	     -2.72815030	    -22.99799360	      0.00000000	      3.60360856	      5.07952056	     -7.04200095	     41.12548116	      0.71777505	     28.58944438	     -0.36985276	      0.00000000
     22.64000000	      1.65879592	      3.52742569	      2.34030493	      2.49868361	      0.90248268	      1.00125937	     26.83813318	     -7.34747571	     -1.45666969	     96.08515883	      1.67700238	     -1.48291723	    -23.12410568	      0.00000000	      0.71105278	      3.91750054	     -7.63040212	     38.85930521	      0.67822282	     28.32581642	      1.26040542	      0.00000000
     22.64666667	      1.65233431	      2.60160086	      2.16703192	      2.50046631	      0.90656564	      1.00122490	     27.78277396	     -6.57193616	     -2.27535957	     93.50665720	      1.63199904	     -0.26383996	    -23.32949024	      0.00000000	     -2.09177910	      2.79068334	     -8.19548577	     36.47291707	      0.63657249	     27.65391428	      2.74986190	      0.00000000
